<svg width="18" height="18" viewBox="0 0 18 18" fill="none" xmlns="http://www.w3.org/2000/svg">
<g id="IMAGE" clip-path="url(#clip0_4_411)">
<g id="Star-Outline-Icon">
<path id="Shape" d="M17.6206 6.78C17.5036 6.42 17.2113 6.15 16.8606 6.09L11.9793 5.31L9.78706 0.57C9.61168 0.21 9.29016 0 8.91018 0C8.53019 0 8.20867 0.21 8.06252 0.57L5.87031 5.34L0.959764 6.15C0.60901 6.21 0.316716 6.48 0.199798 6.84C0.0828801 7.2 0.170568 7.62 0.433634 7.89L3.9704 11.61L3.15197 16.8C3.09351 17.19 3.23966 17.58 3.56119 17.82C3.73656 17.94 3.91194 18 4.08732 18C4.23346 18 4.40884 17.97 4.52576 17.88L8.91018 15.42L13.2654 17.85C13.5869 18.03 13.9669 18 14.2592 17.79C14.5807 17.55 14.7268 17.16 14.6684 16.77L13.85 11.55L17.3867 7.83C17.6498 7.56 17.7375 7.14 17.6206 6.78ZM16.9483 7.41L13.4407 11.13C13.3238 11.25 13.2654 11.46 13.2946 11.64L14.113 16.86C14.1422 17.07 14.0546 17.22 13.9376 17.28C13.8792 17.31 13.733 17.4 13.5577 17.31L9.17324 14.88C8.99786 14.79 8.82249 14.79 8.64711 14.88L4.26269 17.34C4.08732 17.43 3.94117 17.37 3.88271 17.31C3.79502 17.25 3.6781 17.07 3.70733 16.89L4.55499 11.7C4.58422 11.52 4.52576 11.31 4.40884 11.19L0.872075 7.47C0.725928 7.32 0.725928 7.14 0.755158 7.02C0.813616 6.87 0.901305 6.78 1.04745 6.75L5.958 5.94C6.13338 5.91 6.30875 5.79 6.36721 5.61L8.55942 0.84C8.64711 0.69 8.76403 0.6 8.91018 0.6C9.05632 0.6 9.17324 0.69 9.2317 0.84L11.4239 5.61C11.5116 5.79 11.6577 5.91 11.8331 5.94L16.7144 6.72C16.8606 6.75 16.9775 6.84 17.0067 6.99C17.0944 7.08 17.0944 7.29 16.9483 7.41Z" fill="#52503B"/>
</g>
</g>
<defs>
<clipPath id="clip0_4_411">
<rect width="17.5377" height="18" fill="white" transform="translate(0.148987)"/>
</clipPath>
</defs>
</svg>
