<svg width="24" height="24" viewBox="0 0 24 24" fill="none" xmlns="http://www.w3.org/2000/svg">
<g id="IMAGE" clip-path="url(#clip0_4_550)">
<g id="Instagram-Icon">
<path id="Combined-Shape" d="M13.8943 0.000976562C15.5417 0.0042081 16.0121 0.0180576 17.0521 0.0774124C18.3697 0.116122 19.2223 0.30967 19.9974 0.619348C20.7725 0.929025 21.4313 1.31612 22.0902 1.97419C22.749 2.63225 23.1753 3.29032 23.4466 4.10322C23.7179 4.91612 23.9504 5.80644 23.9891 7.04515C24.0279 8.36128 23.9504 8.78709 23.9504 12.0774L23.9501 13.7333C23.95 13.8092 23.95 13.8828 23.9499 13.9541L23.9493 14.3562C23.9469 15.6766 23.9388 16.1264 23.9116 16.9935C23.8729 18.3097 23.6404 19.1613 23.3691 19.9355C23.0978 20.7097 22.6715 21.4064 22.0127 22.0645C21.3538 22.7226 20.695 23.1484 19.8812 23.4193C19.0673 23.6903 18.2535 23.9226 16.9358 23.9613C16.5844 23.9716 16.3019 23.9792 16.0141 23.9847L15.7961 23.9885C15.4272 23.9943 15.021 23.9971 14.4325 23.9986L14.0564 23.9993C13.9897 23.9993 13.9208 23.9994 13.8497 23.9995L10.3208 23.9994C8.50278 23.9969 8.06872 23.9845 7.0146 23.9226C5.69694 23.8839 4.84433 23.6516 4.06924 23.3806C3.29415 23.1097 2.59656 22.6839 1.93773 22.0258C1.2789 21.3677 0.852601 20.7097 0.581318 19.8968C0.310036 19.0839 0.0775077 18.271 0.038753 16.9548C0.031002 16.6916 0.0248013 16.4671 0.0198407 16.25L0.0132912 15.926C0.00696122 15.5636 0.00364554 15.1783 0.00190876 14.6255L0.00104467 14.2725C0.000928406 14.21 0.00082506 14.1454 0.000733197 14.0788L0.00050354 11.38C0.00516558 8.65892 0.0413366 8.27354 0.0775077 7.04515C0.116262 5.72902 0.310036 4.87741 0.620073 4.10322C0.891356 3.29032 1.31766 2.63225 1.97649 1.97419C2.63532 1.31612 3.29415 0.851606 4.10799 0.580638C4.92184 0.30967 5.73569 0.0774124 7.05335 0.0387027C7.97571 0.011606 8.42333 0.00347692 9.73878 0.00103821L13.8943 0.000976562ZM14.0923 2.20718H10.0131C9.15962 2.20837 8.65301 2.2115 8.19371 2.21972L7.98399 2.22389C7.74069 2.2292 7.49774 2.23612 7.20837 2.24515C6.00697 2.28386 5.3869 2.51612 4.9606 2.67096C4.41803 2.90322 4.03049 3.13548 3.60418 3.56128C3.21664 3.94838 2.94535 4.37419 2.71283 4.91612C2.55781 5.38064 2.32528 5.99999 2.28652 7.16128C2.27748 7.45032 2.27055 7.69298 2.26523 7.936L2.26106 8.14548C2.25347 8.56896 2.25021 9.0327 2.24882 9.77206L2.24808 10.3819C2.24803 10.4563 2.24799 10.5329 2.24795 10.612L2.24777 16.8C2.28652 18 2.51905 18.6193 2.67407 19.0452C2.94535 19.5871 3.17788 19.9742 3.60418 20.4C3.99173 20.8258 4.41803 21.0968 4.9606 21.329C5.42565 21.4839 6.04573 21.7161 7.20837 21.7548C8.06365 21.7815 8.53183 21.7898 9.78246 21.7924L10.402 21.7932C10.4776 21.7933 10.5556 21.7933 10.6361 21.7933L16.8583 21.7935C18.0597 21.7548 18.6798 21.5226 19.1061 21.3677C19.6486 21.0968 20.0362 20.8645 20.4625 20.4387C20.8888 20.0516 21.1601 19.6258 21.3926 19.0839C21.5476 18.6193 21.7801 18 21.8189 16.8387C21.8266 16.591 21.8344 16.3773 21.8418 16.1683L21.8492 15.9597C21.8756 15.1926 21.8964 14.3561 21.8964 12L21.8961 10.3819C21.896 10.3076 21.896 10.2356 21.8959 10.1658L21.8953 9.77206C21.8929 8.47819 21.8848 8.02838 21.8576 7.16128C21.8189 5.96128 21.5864 5.34193 21.4313 4.91612C21.1601 4.37419 20.9275 3.98709 20.5012 3.56128C20.1137 3.17419 19.6874 2.90322 19.1448 2.67096C18.6798 2.51612 18.0597 2.28386 16.897 2.24515C16.6077 2.23612 16.3647 2.2292 16.1214 2.22389L15.9117 2.21972C15.4524 2.2115 14.9458 2.20837 14.0923 2.20718ZM12.0139 5.84515C15.4631 5.84515 18.2147 8.55483 18.2147 12C18.2147 15.4452 15.3856 18.1548 12.0139 18.1548C8.64229 18.1548 5.85196 15.4452 5.85196 12C5.85196 8.63225 8.56478 5.84515 12.0139 5.84515ZM12.0139 7.97419C9.80493 7.97419 7.98346 9.79354 7.98346 12C7.98346 14.2064 9.76618 16.0258 12.0139 16.0258C14.2617 16.0258 16.0444 14.2452 16.0444 12C16.0444 9.75483 14.2617 7.97419 12.0139 7.97419ZM18.486 4.14193C19.2779 4.14193 19.9199 4.78317 19.9199 5.57419C19.9199 6.3652 19.2779 7.00644 18.486 7.00644C17.694 7.00644 17.0521 6.3652 17.0521 5.57419C17.0521 4.78317 17.694 4.14193 18.486 4.14193Z" fill="white"/>
</g>
</g>
<defs>
<clipPath id="clip0_4_550">
<rect width="24" height="24" fill="white"/>
</clipPath>
</defs>
</svg>
