<svg width="20" height="20" viewBox="0 0 20 20" fill="none" xmlns="http://www.w3.org/2000/svg">
<path d="M15.2201 0C16.216 0 17.0512 0.813008 17.0833 1.85366V18.1138C17.0833 19.1545 16.2481 20 15.2201 20H4.77985C3.75188 20 2.91666 19.1545 2.91666 18.1138V1.85366C2.91666 0.813008 3.75188 0 4.74772 0H15.2201ZM15.188 1.10569H4.74772C4.33011 1.10569 4.00887 1.46341 4.00887 1.85366V18.1138C4.00887 18.5366 4.36223 18.8618 4.74772 18.8618H15.188C15.6056 18.8618 15.9269 18.5041 15.9269 18.1138V1.85366C15.9269 1.43089 15.5735 1.10569 15.188 1.10569ZM13.4854 8.68293C14.0637 8.68293 14.5777 9.17073 14.5777 9.78862C14.5777 10.4065 14.0958 10.8943 13.4854 10.8943C12.8751 10.8943 12.3932 10.4065 12.3932 9.78862C12.3932 9.17073 12.8751 8.68293 13.4854 8.68293Z" fill="#45525B"/>
</svg>
