<svg width="20" height="20" viewBox="0 0 20 20" fill="none" xmlns="http://www.w3.org/2000/svg">
<g clip-path="url(#clip0_4_129)">
<path d="M18.6544 13.2792C18.6544 13.2468 18.6544 13.2792 18.6544 13.2792C18.6544 13.2468 18.6544 13.2468 18.6544 13.2468L15.9449 7.24026V1.98052C15.9449 0.909091 15.0842 0 14.0005 0H5.96767C4.91576 0 4.02322 0.876623 4.02322 1.98052V7.24026L1.31375 13.2468C1.28188 13.3117 1.25 13.4091 1.25 13.474V19.4156C1.25 19.7403 1.50501 20 1.82377 20C2.14253 20 2.39754 19.7403 2.39754 19.4156V17.6948H17.6025V19.4156C17.6025 19.7403 17.8575 20 18.1762 20C18.495 20 18.75 19.7403 18.75 19.4156V13.474C18.6862 13.4091 18.6862 13.3442 18.6544 13.2792ZM4.94763 7.92208H14.9886L17.2518 12.9221H2.7163L4.94763 7.92208ZM5.17076 1.98052C5.17076 1.52597 5.5214 1.13636 5.99954 1.13636H14.0005C14.4467 1.13636 14.8292 1.49351 14.8292 1.98052V6.78571H5.17076V1.98052ZM2.39754 16.5584V14.0584H17.6025V16.5584H2.39754Z" fill="#45525B"/>
</g>
<defs>
<clipPath id="clip0_4_129">
<rect width="20" height="20" fill="white"/>
</clipPath>
</defs>
</svg>
