<svg width="102" height="38" viewBox="0 0 102 38" fill="none" xmlns="http://www.w3.org/2000/svg">
<g clip-path="url(#clip0_4_13)">
<path fill-rule="evenodd" clip-rule="evenodd" d="M57.5929 25.0816C59.0075 25.0816 60.136 25.4396 60.9793 26.156C61.8222 26.8725 62.2866 27.8388 62.3726 29.0544H59.5002C59.4575 28.5764 59.261 28.1968 58.9113 27.915C58.5607 27.6323 58.0926 27.4916 57.5074 27.4916C56.9641 27.4916 56.5461 27.5923 56.253 27.7955C55.9605 27.9978 55.8137 28.2805 55.8137 28.6418C55.8137 29.0473 56.0143 29.355 56.4137 29.5653C56.8141 29.7746 57.4359 29.9882 58.2793 30.2056C59.1366 30.422 59.8439 30.6473 60.4011 30.8788C60.9584 31.1102 61.4396 31.4678 61.8468 31.9528C62.2541 32.4378 62.465 33.0785 62.4794 33.8745C62.4794 34.5689 62.2899 35.1917 61.9114 35.7422C61.5329 36.2916 60.9896 36.7226 60.2823 37.0335C59.575 37.3445 58.7502 37.4997 57.8074 37.4997C56.8349 37.4997 55.9637 37.3224 55.1928 36.9681C54.421 36.6139 53.8098 36.1326 53.3598 35.5248C52.9098 34.917 52.6636 34.2438 52.62 33.5052H55.6428C55.6995 33.9691 55.9247 34.3525 56.3176 34.6564C56.71 34.9603 57.1995 35.1122 57.7856 35.1122C58.3568 35.1122 58.804 34.9965 59.1249 34.7651C59.4468 34.5336 59.6075 34.2368 59.6075 33.8745C59.6075 33.4841 59.411 33.1905 59.0177 32.9953C58.6252 32.7991 58.0001 32.5865 57.1428 32.355C56.2568 32.1377 55.5318 31.9133 54.968 31.6818C54.4028 31.4503 53.9171 31.0952 53.5098 30.6181C53.1025 30.1402 52.8991 29.4961 52.8991 28.6851C52.8991 28.0199 53.0886 27.4121 53.4671 26.8617C53.8455 26.3113 54.3889 25.8775 55.0962 25.5586C55.8035 25.2406 56.6353 25.0816 57.5929 25.0816ZM75.3389 25.0818C76.2241 25.0818 76.9996 25.263 77.6642 25.6242C78.3288 25.9865 78.8605 26.4423 79.2608 26.9918V25.2771H82.2828V37.3048H79.2608V35.5458C78.8754 36.1103 78.3427 36.5775 77.6642 36.9458C76.9857 37.3151 76.2032 37.5 75.3171 37.5C74.3167 37.5 73.4065 37.2394 72.585 36.7181C71.7625 36.1978 71.1128 35.463 70.634 34.5151C70.1552 33.5671 69.9165 32.4776 69.9165 31.2469C69.9165 30.0313 70.1552 28.9535 70.634 28.0122C71.1128 27.0723 71.7625 26.3487 72.585 25.8416C73.4065 25.3354 74.3237 25.0818 75.3389 25.0818ZM96.1489 25.0816C97.2774 25.0816 98.2894 25.3272 99.182 25.8192C100.074 26.3113 100.767 27.0104 101.261 27.915C101.754 28.8197 102 29.8575 102 31.0308C102 31.4645 101.971 31.855 101.915 32.2031H93.2343C93.3058 33.0715 93.6058 33.7518 94.1343 34.2439C94.6628 34.7359 95.3134 34.9815 96.0844 34.9815C97.1989 34.9815 97.9926 34.4974 98.4635 33.5274H101.7C101.357 34.6856 100.7 35.6368 99.7281 36.3825C98.7566 37.1281 97.5635 37.4998 96.1489 37.4998C95.0055 37.4998 93.981 37.2429 93.0731 36.7297C92.1661 36.2155 91.4588 35.4886 90.9512 34.5478C90.4446 33.6069 90.191 32.5211 90.191 31.2904C90.191 30.0466 90.4404 28.9538 90.941 28.012C91.4407 27.072 92.1411 26.3485 93.0415 25.8414C93.9416 25.3352 94.9777 25.0816 96.1489 25.0816ZM51.8271 22.1284V24.6038H46.1474V28.4036H51.1849V30.8131H46.1474V34.8293H51.8271V37.3047H43.1473V22.1284H51.8271ZM67.1518 22.3023V25.2769H69.8092V27.7735H67.1518V33.5924C67.1518 33.9974 67.248 34.2905 67.4407 34.4716C67.6339 34.6528 67.9585 34.7426 68.4164 34.7426H69.8092V37.3046H67.9228C65.3936 37.3046 64.129 36.0598 64.129 33.5708V27.7735H62.7144V25.2769H64.129V22.3023H67.1518ZM87.4272 22.3023V25.2769H90.0845V27.7735H87.4272V33.5924C87.4272 33.9974 87.5233 34.2905 87.716 34.4716C87.9092 34.6528 88.2338 34.7426 88.6917 34.7426H90.0845V37.3046H88.1981C85.6689 37.3046 84.4043 36.0598 84.4043 33.5708V27.7735H82.9897V25.2769H84.4043V22.3023H87.4272ZM76.1098 27.7525C75.5525 27.7525 75.0389 27.8894 74.5671 28.1651C74.0952 28.4398 73.7135 28.8416 73.4204 29.3689C73.1274 29.8982 72.9811 30.5234 72.9811 31.2469C72.9811 31.9714 73.1274 32.6041 73.4204 33.1475C73.7135 33.6899 74.0989 34.1058 74.5777 34.3956C75.0566 34.6854 75.5674 34.8293 76.1098 34.8293C76.6671 34.8293 77.1887 34.6891 77.6754 34.4064C78.1602 34.1246 78.5466 33.7191 78.8327 33.1908C79.1178 32.6625 79.2608 32.0288 79.2608 31.2902C79.2608 30.5526 79.1178 29.9194 78.8327 29.3911C78.5466 28.8627 78.1602 28.4572 77.6754 28.1754C77.1887 27.8927 76.6671 27.7525 76.1098 27.7525ZM96.0635 27.5782C95.3204 27.5782 94.6953 27.8064 94.1877 28.2622C93.681 28.7181 93.3699 29.3513 93.2556 30.1614H98.8926C98.8778 29.3805 98.5996 28.7543 98.0562 28.2843C97.5138 27.8134 96.8492 27.5782 96.0635 27.5782Z" fill="#45525B"/>
<path fill-rule="evenodd" clip-rule="evenodd" d="M20.8587 0.5L35.9353 15.8071V37.3048H32.4369V17.273L18.3825 3.00838L20.8587 0.5ZM10.968 10.5331L21.9354 21.6712V37.3049H0V21.6712L10.968 10.5331ZM15.9132 5.51652L28.939 18.7391V37.3045H25.4406V20.205L13.4439 8.0249L15.9132 5.51652Z" fill="#FF8A63"/>
</g>
<defs>
<clipPath id="clip0_4_13">
<rect width="102" height="37" fill="white" transform="translate(0 0.5)"/>
</clipPath>
</defs>
</svg>
