<svg width="20" height="20" viewBox="0 0 20 20" fill="none" xmlns="http://www.w3.org/2000/svg">
<path d="M19.4582 8.6708L15.8364 4.95373C15.3393 4.47189 14.5581 4.47189 14.061 4.8849C13.5639 5.36674 13.5639 6.12392 13.99 6.60576L16.0494 8.73963H1.27827C0.568121 8.73963 0 9.29031 0 9.97866C0 10.667 0.568121 11.2177 1.27827 11.2177H16.1204L14.061 13.3515C13.5639 13.8334 13.6349 14.5906 14.132 15.0724C14.3451 15.2789 14.7001 15.4166 14.9842 15.4166C15.3393 15.4166 15.6233 15.2789 15.9074 15.0724L19.5292 11.3553C20.1683 10.5293 20.1683 9.42798 19.4582 8.6708Z" fill="#45525B"/>
</svg>
