<svg width="48" height="48" viewBox="0 0 48 48" fill="none" xmlns="http://www.w3.org/2000/svg">
<g clip-path="url(#clip0_4_72)">
<path d="M0 0H48V48H0V0Z" fill="#45525B"/>
<path d="M35.8829 22.0301L35.922 21.9918C35.922 21.9918 35.922 21.9536 35.961 21.9153C35.961 21.877 35.961 21.877 36 21.8388V21.8005C36 21.7623 36 21.7623 36 21.724V21.6858V21.6475C36 21.6475 36 21.6475 36 21.6093C35.1805 16.9809 30.0293 13.5 23.9805 13.5C17.9317 13.5 12.7805 16.9809 12 21.571C12 21.571 12 21.571 12 21.6093V21.6475V21.6858C12 21.724 12 21.724 12 21.7623C12 21.8005 12 21.8005 12 21.8388C12 21.877 12 21.877 12.039 21.9153C12.039 21.9536 12.039 21.9536 12.078 21.9918C12.078 22.0301 12.1171 22.0301 12.1171 22.0683L12.1561 22.1066L12.1951 22.1448L12.2341 22.1831L12.2732 22.2213L12.3122 22.2596C12.3122 22.2596 12.3512 22.2978 12.3902 22.2978C12.3902 22.2978 12.4293 22.3361 12.4683 22.3361C12.4683 22.3361 12.5073 22.3361 12.5463 22.3361C12.5854 22.3361 12.5854 22.3361 12.6244 22.3361H12.6634H12.7024H15.122V33.0847H14.4976C14.1073 33.0847 13.7951 33.3907 13.7951 33.7732C13.7951 34.1557 14.1073 34.4617 14.4976 34.4617H21.1317C21.522 34.4617 21.8341 34.1557 21.8341 33.7732C21.8341 33.3907 21.522 33.0847 21.1317 33.0847H20.5463V22.3743H27.4927V33.123H26.8293C26.439 33.123 26.1268 33.429 26.1268 33.8115C26.1268 34.194 26.439 34.5 26.8293 34.5H33.4634C33.8537 34.5 34.1659 34.194 34.1659 33.8115C34.1659 33.429 33.8537 33.123 33.4634 33.123H32.9561V22.3743H35.2976C35.3366 22.3743 35.3756 22.3743 35.4146 22.3743C35.4537 22.3743 35.4537 22.3743 35.4927 22.3743C35.5317 22.3743 35.5317 22.3743 35.5707 22.3743C35.6098 22.3743 35.6098 22.3743 35.6488 22.3361C35.6878 22.3361 35.6878 22.2978 35.7268 22.2978L35.7659 22.2596L35.8049 22.2213L35.8439 22.1831L35.8829 22.1448C35.8829 22.0683 35.8829 22.0683 35.8829 22.0301ZM23.9805 14.8388C29.0146 14.8388 33.3463 17.4781 34.439 21.0738H13.522C14.6146 17.4399 18.9463 14.8388 23.9805 14.8388ZM19.1805 33.123H16.4488V22.3743H19.1805V33.123ZM31.5902 33.123H28.8585V22.3743H31.5902V33.123Z" fill="white"/>
</g>
<defs>
<clipPath id="clip0_4_72">
<rect width="48" height="48" fill="white"/>
</clipPath>
</defs>
</svg>
