<svg width="48" height="48" viewBox="0 0 48 48" fill="none" xmlns="http://www.w3.org/2000/svg">
<g clip-path="url(#clip0_4_83)">
<path d="M0 0H48V48H0V0Z" fill="#45525B"/>
<path d="M30.8017 27.0244C30.8017 25.8146 29.8102 24.839 28.5807 24.839H28.3031L29.2153 17.5415V17.5024C29.2946 16.0585 28.779 14.6927 27.7479 13.639C26.7167 12.5854 25.3683 12 23.9009 12C22.4334 12 21.0453 12.5854 20.0538 13.639C19.0227 14.6927 18.5071 16.0585 18.5864 17.5024V17.5415L19.4986 24.839H19.221C17.9915 24.839 17 25.8146 17 27.0244V28.7024C17 29.2878 17.238 29.8341 17.6346 30.2244V35.2976C17.6346 35.6878 17.9518 36 18.3484 36C18.745 36 19.0623 35.6878 19.0623 35.2976V30.8878C19.1416 30.8878 19.221 30.8878 19.2606 30.8878H20.9263V34.2049C20.9263 34.5951 21.2436 34.9073 21.6402 34.9073C22.0368 34.9073 22.3541 34.5951 22.3541 34.2049V30.8878H25.6459V34.2049C25.6459 34.5951 25.9632 34.9073 26.3598 34.9073C26.7564 34.9073 27.0737 34.5951 27.0737 34.2049V30.8878H28.7394C28.8187 30.8878 28.898 30.8878 28.9377 30.8878V35.2976C28.9377 35.6878 29.255 36 29.6516 36C30.0482 36 30.3654 35.6878 30.3654 35.2976V30.2634C30.762 29.8732 31 29.3268 31 28.7415V27.0244H30.8017ZM19.8952 17.3854C19.8555 16.3317 20.2521 15.3171 20.966 14.5366C21.7195 13.7561 22.7507 13.3268 23.8215 13.3268C24.932 13.3268 25.9235 13.7561 26.6771 14.5366C27.4306 15.3171 27.8272 16.3317 27.7479 17.3854L26.8357 24.8H20.847L19.8952 17.3854ZM19.1813 29.561C19.0227 29.561 18.864 29.522 18.745 29.4439C18.7054 29.4049 18.6657 29.4049 18.6261 29.3659C18.4278 29.2098 18.3088 28.9756 18.3088 28.7415V27.0634C18.3088 26.5951 18.7054 26.2439 19.1416 26.2439H20.1728H27.4703H28.5014C28.9773 26.2439 29.3343 26.6341 29.3343 27.0634V28.7415C29.3343 29.0146 29.2153 29.2098 29.017 29.3659C28.9773 29.4049 28.9377 29.4049 28.898 29.4439C28.779 29.522 28.6204 29.561 28.4618 29.561H19.1813Z" fill="white"/>
</g>
<defs>
<clipPath id="clip0_4_83">
<rect width="48" height="48" fill="white"/>
</clipPath>
</defs>
</svg>
