<svg width="48" height="48" viewBox="0 0 48 48" fill="none" xmlns="http://www.w3.org/2000/svg">
<g clip-path="url(#clip0_4_61)">
<path d="M0 0H48V48H0V0Z" fill="#45525B"/>
<g clip-path="url(#clip1_4_61)">
<path d="M15.7013 26.5813C16.0519 26.4236 16.4416 26.5813 16.5974 26.936C16.7532 27.2906 16.5974 27.6847 16.2468 27.8424C14.4545 28.6305 13.4026 29.6158 13.4026 30.5616C13.4026 32.4926 17.7273 34.6601 24 34.6601C30.2727 34.6601 34.6364 32.4926 34.5974 30.5616C34.5974 29.6158 33.5844 28.6305 31.8312 27.8818C31.4805 27.7241 31.3247 27.33 31.4805 26.9754C31.6364 26.6207 32.026 26.4631 32.3766 26.6207C34.7143 27.6453 36 29.0246 36 30.5616C36 33.6355 30.8571 36 24 36C17.1429 36 12 33.6749 12 30.5616C12 29.0246 13.3247 27.6059 15.7013 26.5813ZM24 12C28.3247 12 31.8312 15.5468 31.8312 19.9212C31.8312 23.1921 27.7403 28.3153 25.2857 31.0739C24.974 31.468 24.5065 31.665 24 31.665C23.4935 31.665 23.026 31.4286 22.7143 31.0739C20.2597 28.3153 16.1688 23.1921 16.1688 19.9212C16.1688 15.5468 19.6753 12 24 12ZM24 13.3793C20.4545 13.3793 17.5325 16.2956 17.5325 19.9212C17.5325 21.931 19.8701 25.7537 23.7273 30.1281C23.8052 30.2463 23.961 30.2463 24 30.2463C24.039 30.2463 24.1558 30.2463 24.2727 30.1281C28.1688 25.7537 30.4675 21.931 30.4675 19.9212C30.4675 16.2956 27.5455 13.3793 24 13.3793Z" fill="white"/>
</g>
</g>
<defs>
<clipPath id="clip0_4_61">
<rect width="48" height="48" fill="white"/>
</clipPath>
<clipPath id="clip1_4_61">
<rect width="24" height="24" fill="white" transform="translate(12 12)"/>
</clipPath>
</defs>
</svg>
